<?xml version="1.0" encoding="UTF-8"?>
<svg width="30px" height="112px" viewBox="0 0 30 112" version="1.1" xmlns="http://www.w3.org/2000/svg" xmlns:xlink="http://www.w3.org/1999/xlink">
    <!-- Generator: Sketch 63.1 (92452) - https://sketch.com -->
    <title>Group</title>
    <desc>Created with Sketch.</desc>
    <g id="Page-2" stroke="none" stroke-width="1" fill="none" fill-rule="evenodd">
        <g id="Group" transform="translate(1.000000, 0.000000)">
            <line x1="13.75" y1="0.5" x2="14.5" y2="112.75" id="Line-2-Copy" stroke="#747588" stroke-linecap="square" stroke-dasharray="0,5"></line>
            <circle id="Oval" stroke="#747588" fill="#FFFFFF" cx="14" cy="53.25" r="14"></circle>
            <g id="noun_send_984575" transform="translate(13.892308, 54.250000) rotate(-270.000000) translate(-13.892308, -54.250000) translate(6.392308, 47.250000)" fill="#747588" fill-rule="nonzero">
                <path d="M7.35323077,7.33384615 L1.72307692,7.87876923 L0.241230769,12.6172308 C0.152773982,12.8973676 0.239754737,13.2032666 0.462371469,13.3949513 C0.684988201,13.586636 1.0004119,13.6272285 1.26430769,13.4981538 L13.6036923,7.52338462 C13.8449592,7.40569653 13.9980119,7.16074804 13.9980119,6.89230769 C13.9980119,6.62386735 13.8449592,6.37891885 13.6036923,6.26123077 L1.27292308,0.282153846 C1.00902729,0.15307924 0.693603586,0.193671647 0.470986854,0.38535637 C0.248370121,0.577041093 0.161389367,0.8829401 0.249846154,1.16307692 L1.73169231,5.90153846 L7.35107692,6.44646154 C7.57810319,6.46891292 7.75110402,6.65986628 7.75110402,6.888 C7.75110402,7.11613372 7.57810319,7.30708708 7.35107692,7.32953846 L7.35323077,7.33384615 Z" id="Path"></path>
            </g>
        </g>
    </g>
</svg>