<?xml version="1.0" encoding="UTF-8"?>
<svg width="153px" height="38px" viewBox="0 0 153 38" version="1.1" xmlns="http://www.w3.org/2000/svg" xmlns:xlink="http://www.w3.org/1999/xlink">
    <!-- Generator: Sketch 63.1 (92452) - https://sketch.com -->
    <title>Group</title>
    <desc>Created with Sketch.</desc>
    <g id="Video-Assessment-UX" stroke="none" stroke-width="1" fill="none" fill-rule="evenodd">
        <g id="CS_VideoProfile_3" transform="translate(-745.000000, -450.000000)">
            <g id="Group" transform="translate(745.000000, 450.000000)">
                <path d="M22.1853131,22.1835309 C21.3743965,22.9981603 20.279848,23.4630817 19.1092767,23.4630817 C16.7066949,23.4630817 14.7592085,21.5071402 14.7592085,19.0941674 C14.7592085,16.6814598 16.7067332,14.7255567 19.1092767,14.7255567 C20.1240389,14.7255567 21.0829409,15.0743641 21.8533873,15.7040913 L23.0705573,14.2022091 C21.9592919,13.2939124 20.5715577,12.7891142 19.1092767,12.7891142 C15.6417879,12.7891142 12.8309852,15.6120091 12.8309852,19.0941674 C12.8309852,22.5765738 15.6417327,25.3995242 19.1092767,25.3995242 C20.796546,25.3995242 22.3799858,24.7269408 23.5489873,23.5525873 L22.1853131,22.1835309 Z" id="Stroke-1" fill="#E16240" fill-rule="nonzero"></path>
                <path d="M15.064555,11.4202568 L14.160864,9.70965007 C15.6724914,8.90425484 17.3611755,8.47713619 19.1092767,8.47713619 C24.9479593,8.47713619 29.6812441,13.2307003 29.6812441,19.0941674 C29.6812441,24.9578865 24.9480107,29.7115022 19.1092767,29.7115022 C13.2705426,29.7115022 8.53730929,24.9578865 8.53730929,19.0941674 L10.4655326,19.0941674 C10.4655326,23.8884377 14.3354897,27.7750597 19.1092767,27.7750597 C23.8830636,27.7750597 27.7530208,23.8884377 27.7530208,19.0941674 C27.7530208,14.3001585 23.8830216,10.4135787 19.1092767,10.4135787 C17.6781529,10.4135787 16.2994883,10.7622842 15.064555,11.4202568 Z M10.1602908,28.3206376 L8.81473293,29.7076545 C5.98299487,26.93709 4.35581324,23.1444936 4.35581324,19.0941674 C4.35581324,10.9114421 10.9612829,4.27781621 19.1092767,4.27781621 C27.2574717,4.27781621 33.8627401,10.9113405 33.8627401,19.0941674 C33.8627401,25.0953999 30.2772763,30.4331356 24.8707064,32.7385123 L24.1171118,30.9560833 C28.8175984,28.9517825 31.9345168,24.3115777 31.9345168,19.0941674 C31.9345168,11.9808017 26.1925368,6.21425872 19.1092767,6.21425872 C12.0262112,6.21425872 6.28403656,11.9809098 6.28403656,19.0941674 C6.28403656,22.6167482 7.69737781,25.9109305 10.1602908,28.3206376 Z" id="Stroke-2" fill="#465191" fill-rule="nonzero"></path>
                <path d="M29.808964,32.1248614 C26.7984336,34.6432447 23.0144464,36.0447958 19.0134249,36.0447958 C9.69177702,36.0447958 2.13504545,28.4558531 2.13504545,19.094471 C2.13504545,9.73308895 9.69177702,2.14414625 19.0134249,2.14414625 C22.9610693,2.14414625 26.697964,3.50842889 29.690571,5.96590853 L30.8623539,4.52677372 C27.5420532,1.80019737 23.392165,0.285137137 19.0134249,0.285137137 C8.66943246,0.285137137 0.283926877,8.70638657 0.283926877,19.094471 C0.283926877,29.4825555 8.66943246,37.9038049 19.0134249,37.9038049 C23.451402,37.9038049 27.6535662,36.3473652 30.9937197,33.5532441 L29.808964,32.1248614 Z" id="Stroke-3" fill="#465191" fill-rule="nonzero"></path>
                <path d="M25.1588241,16.1778127 C25.1588241,17.2536816 24.2901107,18.126098 23.2185059,18.126098 C22.1472036,18.126098 21.2784901,17.2536816 21.2784901,16.1778127 C21.2784901,15.1016401 22.1472036,14.2292237 23.2185059,14.2292237 C24.2901107,14.2292237 25.1588241,15.1016401 25.1588241,16.1778127" id="Fill-4" fill="#E16240"></path>
                <path d="M16.711168,10.8649699 C16.711168,11.9411425 15.8427569,12.8132552 14.7711522,12.8132552 C13.6995474,12.8132552 12.830834,11.9411425 12.830834,10.8649699 C12.830834,9.78879739 13.6995474,8.91638099 14.7711522,8.91638099 C15.8427569,8.91638099 16.711168,9.78879739 16.711168,10.8649699" id="Fill-5" fill="#E16240"></path>
                <path d="M26.3637747,31.6805882 C26.3637747,32.7567608 25.4953636,33.6288735 24.4237589,33.6288735 C23.3521542,33.6288735 22.4834407,32.7567608 22.4834407,31.6805882 C22.4834407,30.6044157 23.3521542,29.7319993 24.4237589,29.7319993 C25.4953636,29.7319993 26.3637747,30.6044157 26.3637747,31.6805882" id="Fill-6" fill="#E16240"></path>
                <path d="M33.4456186,5.93139904 C33.4456186,7.00757158 32.5769051,7.87968431 31.5056028,7.87968431 C30.433998,7.87968431 29.5652846,7.00757158 29.5652846,5.93139904 C29.5652846,4.8552265 30.433998,3.9828101 31.5056028,3.9828101 C32.5769051,3.9828101 33.4456186,4.8552265 33.4456186,5.93139904" id="Fill-7" fill="#E16240"></path>
                <path d="M33.4456186,31.8296855 C33.4456186,32.9058581 32.5769051,33.7782744 31.5056028,33.7782744 C30.433998,33.7782744 29.5652846,32.9058581 29.5652846,31.8296855 C29.5652846,30.753513 30.433998,29.8814002 31.5056028,29.8814002 C32.5769051,29.8814002 33.4456186,30.753513 33.4456186,31.8296855" id="Fill-8" fill="#E16240"></path>
                <path d="M25.1588241,21.9868366 C25.1588241,23.0630091 24.2901107,23.9351218 23.2185059,23.9351218 C22.1472036,23.9351218 21.2784901,23.0630091 21.2784901,21.9868366 C21.2784901,20.910664 22.1472036,20.0382476 23.2185059,20.0382476 C24.2901107,20.0382476 25.1588241,20.910664 25.1588241,21.9868366" id="Fill-9" fill="#E16240"></path>
                <path d="M11.4417391,19.0941674 C11.4417391,20.1703399 10.5730257,21.0427563 9.50142095,21.0427563 C8.42981621,21.0427563 7.56140514,20.1703399 7.56140514,19.0941674 C7.56140514,18.0182985 8.42981621,17.1458821 9.50142095,17.1458821 C10.5730257,17.1458821 11.4417391,18.0182985 11.4417391,19.0941674" id="Fill-10" fill="#E16240"></path>
                <path d="M11.4211779,29.0180937 C11.4211779,30.0939625 10.5524644,30.9663789 9.48085968,30.9663789 C8.40925494,30.9663789 7.54084387,30.0939625 7.54084387,29.0180937 C7.54084387,27.9419211 8.40925494,27.0695047 9.48085968,27.0695047 C10.5524644,27.0695047 11.4211779,27.9419211 11.4211779,29.0180937" id="Fill-11" fill="#E16240"></path>
                <path d="M50.234496,11.2126611 C52.1606028,11.2126611 53.7776858,12.1676731 54.8238913,13.2423274 L52.8977846,15.415625 C52.1131304,14.6992901 51.3759486,14.2453178 50.2819684,14.2453178 C48.1181976,14.2453178 46.4297549,16.13196 46.4297549,19.2605733 C46.4297549,22.4605468 47.9280059,24.3231999 50.1870237,24.3231999 C51.4708933,24.3231999 52.3746818,23.7741818 53.135751,22.9382047 L55.0618577,25.0638276 C53.7776858,26.5681614 52.0656581,27.3561602 50.1395514,27.3561602 C46.1207312,27.3561602 42.8390929,24.6098553 42.8390929,19.3799118 C42.8390929,14.2216322 46.2395632,11.2126611 50.234496,11.2126611" id="Fill-12" fill="#465191"></path>
                <path d="M57.1070988,10.3290093 L60.6025138,10.3290093 L60.6025138,23.5352011 C60.6025138,24.2755252 60.9354249,24.5142023 61.2208636,24.5142023 C61.363583,24.5142023 61.45883,24.5142023 61.6490217,24.4665276 L62.0768775,27.0695047 C61.6964941,27.2368216 61.1020316,27.3561602 60.3170751,27.3561602 C57.9153379,27.3561602 57.1070988,25.7801626 57.1070988,23.3918733 L57.1070988,10.3290093" id="Fill-13" fill="#465191"></path>
                <path d="M63.9080395,27.0695047 L67.4037569,27.0695047 L67.4037569,15.2246226 L63.9080395,15.2246226 L63.9080395,27.0695047 Z M63.6226008,11.6423406 C63.6226008,10.5676864 64.478917,9.82736226 65.6439545,9.82736226 C66.8331818,9.82736226 67.6653083,10.5676864 67.6653083,11.6423406 C67.6653083,12.7169948 66.8331818,13.4813081 65.6439545,13.4813081 C64.478917,13.4813081 63.6226008,12.7169948 63.6226008,11.6423406 L63.6226008,11.6423406 Z" id="Fill-14" fill="#465191"></path>
                <polyline id="Fill-15" fill="#465191" points="70.4713162 10.3290093 73.8717866 10.3290093 73.8717866 19.9289299 73.9667312 19.9289299 77.7001126 15.2246226 81.5048538 15.2246226 77.3672016 20.0962468 81.8141798 27.0695047 78.0330237 27.0695047 75.3697352 22.4605468 73.8717866 24.155883 73.8717866 27.0695047 70.4713162 27.0695047 70.4713162 10.3290093"></polyline>
                <path d="M84.7867945,22.6995276 C85.8810771,23.6545396 87.307666,24.3231999 88.5918379,24.3231999 C90.0423142,24.3231999 90.7559111,23.749889 90.7559111,22.8188661 C90.7559111,21.8395613 89.8760099,21.5292203 88.5204783,20.9559094 L86.5230119,20.0962468 C84.9059289,19.4515757 83.3840929,18.1142552 83.3840929,15.8456082 C83.3840929,13.2663165 85.690583,11.2126611 88.9008617,11.2126611 C90.684249,11.2126611 92.5628834,11.928996 93.89483,13.2663165 L92.1347253,15.4872889 C91.1124071,14.6992901 90.1375613,14.2453178 88.9008617,14.2453178 C87.7119368,14.2453178 86.9272826,14.7709539 86.9272826,15.6543021 C86.9272826,16.6096178 87.9496008,16.9439479 89.3051324,17.4932696 L91.2787115,18.3052576 C93.1573458,19.0692672 94.3465731,20.3349239 94.3465731,22.5322107 C94.3465731,25.1115023 92.2063874,27.3561602 88.5204783,27.3561602 C86.4991245,27.3561602 84.3589387,26.5921505 82.7654407,25.1115023 L84.7867945,22.6995276" id="Fill-16" fill="#E16240"></path>
                <path d="M101.742279,24.5142023 C103.168868,24.5142023 103.906049,23.2008709 103.906049,21.1472155 C103.906049,19.0932564 103.168868,17.7799251 101.742279,17.7799251 C100.2915,17.7799251 99.5779032,19.0932564 99.5779032,21.1472155 C99.5779032,23.2008709 100.2915,24.5142023 101.742279,24.5142023 Z M101.742279,14.9379672 C104.714591,14.9379672 107.473126,17.2066142 107.473126,21.1472155 C107.473126,25.0875131 104.714591,27.3561602 101.742279,27.3561602 C98.7460791,27.3561602 95.9872411,25.0875131 95.9872411,21.1472155 C95.9872411,17.2066142 98.7460791,14.9379672 101.742279,14.9379672 L101.742279,14.9379672 Z" id="Fill-17" fill="#E16240"></path>
                <path d="M109.756032,15.2246226 L113.251447,15.2246226 L113.251447,22.1262167 C113.251447,23.8218565 113.70319,24.3708745 114.72581,24.3708745 C115.605711,24.3708745 116.128814,23.9891734 116.818524,23.0575432 L116.818524,15.2246226 L120.314241,15.2246226 L120.314241,27.0695047 L117.460458,27.0695047 L117.198907,25.4218433 L117.12785,25.4218433 C116.128814,26.6158361 115.035136,27.3561602 113.418053,27.3561602 C110.849709,27.3561602 109.756032,25.5411818 109.756032,22.5798854 L109.756032,15.2246226" id="Fill-18" fill="#E16240"></path>
                <path d="M123.382103,15.2246226 L126.235583,15.2246226 L126.473549,17.3022672 L126.568494,17.3022672 C127.424508,15.7022805 128.70868,14.9379672 129.921492,14.9379672 C130.587314,14.9379672 130.991585,15.0336202 131.324496,15.1769479 L130.753619,18.2096046 C130.325763,18.090266 129.968964,18.0186022 129.469749,18.0186022 C128.589848,18.0186022 127.495868,18.591913 126.87782,20.1918998 L126.87782,27.0695047 L123.382103,27.0695047 L123.382103,15.2246226" id="Fill-19" fill="#E16240"></path>
                <path d="M138.054682,14.9379672 C139.505158,14.9379672 140.71797,15.4872889 141.502625,16.2992769 L139.909429,18.4722708 C139.338854,17.994613 138.815449,17.7799251 138.268761,17.7799251 C136.580318,17.7799251 135.509923,19.0932564 135.509923,21.1472155 C135.509923,23.2008709 136.627791,24.5142023 138.149626,24.5142023 C139.00564,24.5142023 139.69535,24.1082083 140.266227,23.6545396 L141.669231,25.8755119 C140.527476,26.8785023 139.029528,27.3561602 137.745356,27.3561602 C134.46402,27.3561602 131.919261,25.0875131 131.919261,21.1472155 C131.919261,17.2066142 134.796628,14.9379672 138.054682,14.9379672" id="Fill-20" fill="#E16240"></path>
                <path d="M149.968423,19.9289299 C149.968423,18.5679239 149.397545,17.6126082 147.994844,17.6126082 C146.900864,17.6126082 145.949603,18.3529323 145.711939,19.9289299 L149.968423,19.9289299 Z M147.923182,14.9379672 C151.27618,14.9379672 152.941038,17.3979203 152.941038,20.621883 C152.941038,21.2428685 152.869678,21.8155721 152.798016,22.1025312 L145.735826,22.1025312 C146.044547,23.8935204 147.233775,24.6815192 148.803083,24.6815192 C149.683287,24.6815192 150.491526,24.4188529 151.34754,23.8935204 L152.512879,26.0188397 C151.300067,26.8545131 149.730759,27.3561602 148.327453,27.3561602 C144.95087,27.3561602 142.358941,25.0638276 142.358941,21.1472155 C142.358941,17.3022672 145.093589,14.9379672 147.923182,14.9379672 L147.923182,14.9379672 Z" id="Fill-21" fill="#E16240"></path>
            </g>
        </g>
    </g>
</svg>