<?xml version="1.0" encoding="UTF-8"?>
<svg width="24px" height="30px" viewBox="0 0 24 30" version="1.1" xmlns="http://www.w3.org/2000/svg" xmlns:xlink="http://www.w3.org/1999/xlink">
    <title>error_mic</title>
    <defs>
        <path d="M0.5,2 L16.5,24" id="path-1"></path>
    </defs>
    <g id="Video-Profile" stroke="none" stroke-width="1" fill="none" fill-rule="evenodd">
        <g id="CS_VideoProfile_2a" transform="translate(-535.000000, -551.000000)">
            <g id="error_mic" transform="translate(538.500000, 553.000000)">
                <g id="noun_mic_2027315" transform="translate(1.500000, 2.000000)" fill="#747588" fill-rule="nonzero">
                    <path d="M6.95586623,16.5876673 C9.5703125,16.5876673 11.7050439,14.415764 11.7050439,11.7498015 L11.7050439,4.86232418 C11.7050439,2.19636173 9.5703125,0.0244583711 6.95586623,0.0244583711 C4.34141996,0.0244583711 2.2066886,2.19636173 2.2066886,4.86232418 L2.2066886,11.7498015 C2.2066886,14.4206556 4.34141996,16.5876673 6.95586623,16.5876673 Z M3.35800439,4.86232418 C3.35800439,2.84206273 4.97464364,1.19846019 6.95586623,1.19846019 C8.93708882,1.19846019 10.5537281,2.84206273 10.5537281,4.86232418 L10.5537281,11.7498015 C10.5537281,13.770063 8.93708882,15.4136655 6.95586623,15.4136655 C4.97464364,15.4136655 3.35800439,13.770063 3.35800439,11.7498015 L3.35800439,4.86232418 Z" id="Shape"></path>
                    <path d="M13.8877467,13.2613288 C13.8877467,12.9384783 13.6287007,12.6743279 13.3120888,12.6743279 C12.995477,12.6743279 12.7364309,12.9384783 12.7364309,13.2613288 C12.7364309,16.0446915 10.1459704,18.3095366 6.95586623,18.3095366 C3.76576206,18.3095366 1.17530154,16.0446915 1.17530154,13.2613288 C1.17530154,12.9384783 0.916255482,12.6743279 0.59964364,12.6743279 C0.283031798,12.6743279 0.0239857456,12.9384783 0.0239857456,13.2613288 C0.0239857456,16.5191839 2.82552083,19.1998213 6.38020833,19.4639718 L6.38020833,21.7679503 L4.78275768,21.7679503 C4.46614583,21.7679503 4.20709978,22.0321007 4.20709978,22.3549512 C4.20709978,22.6778017 4.46614583,22.9419521 4.78275768,22.9419521 L9.12897478,22.9419521 C9.44558662,22.9419521 9.70463268,22.6778017 9.70463268,22.3549512 C9.70463268,22.0321007 9.44558662,21.7679503 9.12897478,21.7679503 L7.53152412,21.7679503 L7.53152412,19.4590801 C11.0862116,19.1949297 13.8877467,16.5191839 13.8877467,13.2613288 Z" id="Path"></path>
                </g>
                <circle id="Oval" stroke="#FFFFFF" fill="#E14228" cx="13" cy="3.5" r="3.5"></circle>
                <g id="Line-3" stroke-linecap="square">
                    <use stroke="#FFFFFF" stroke-width="5" xlink:href="#path-1"></use>
                    <use stroke="#747588" stroke-width="1.1" xlink:href="#path-1"></use>
                </g>
            </g>
        </g>
    </g>
</svg>