<?xml version="1.0" encoding="UTF-8"?>
<svg width="35px" height="35px" viewBox="0 0 35 35" version="1.1" xmlns="http://www.w3.org/2000/svg" xmlns:xlink="http://www.w3.org/1999/xlink">
    <!-- Generator: Sketch 63.1 (92452) - https://sketch.com -->
    <title>noun_Refresh_1884295</title>
    <desc>Created with Sketch.</desc>
    <g id="Video-Assessment-UX" stroke="none" stroke-width="1" fill="none" fill-rule="evenodd">
        <g id="CS_VideoProfile_1_new" transform="translate(-766.000000, -186.000000)">
            <g id="noun_Refresh_1884295" transform="translate(766.000000, 186.000000)">
                <path d="M30.73,9.10000029 L24.269,9.10000029 C23.9686859,9.10026471 23.697825,8.91947915 23.582864,8.64203979 C23.4679029,8.36460043 23.5315134,8.04522178 23.744,7.833 L30.2085,1.358 C30.4193499,1.14486676 30.7381291,1.08035638 31.0152573,1.19473896 C31.2923856,1.30912154 31.4728612,1.57969555 31.472,1.8795 L31.472,8.344 C31.4757593,8.54320502 31.3992472,8.73555229 31.2596857,8.87774706 C31.1201242,9.01994182 30.9292405,9.10000029 30.73,9.10000029 L30.73,9.10000029 Z" id="Path" fill="#3ec82c" fill-rule="nonzero"></path>
                <path d="M4.62,26.5999997 L11.081,26.5999997 C11.3813141,26.5997353 11.652175,26.7805209 11.767136,27.0579602 C11.8820971,27.3353996 11.8184866,27.6547782 11.606,27.867 L5.145,34.3385 C4.93277822,34.5509866 4.61339957,34.6145971 4.33596021,34.499636 C4.05852085,34.384675 3.87773529,34.1138141 3.8779256,33.8135 L3.8779256,27.3525 C3.87518929,27.1538964 3.95212148,26.9624571 4.09157928,26.8210259 C4.23103708,26.6795946 4.42137654,26.5999997 4.62,26.5999997 Z" id="Path" fill="#3ec82c" fill-rule="nonzero"></path>
                <path d="M2.681,24.8501792 C2.12259479,24.8473437 1.61917021,24.5131028 1.4,23.9995 C-1.73711911,16.3913463 0.895067286,7.62592897 7.70458294,3.00467205 C14.5140986,-1.61658487 23.6319262,-0.82527853 29.5435,4.9 C29.834,5.1835 30.121,5.481 30.3905,5.782 C30.7995917,6.3626459 30.7090405,7.15762503 30.1798466,7.63139659 C29.6506527,8.10516815 28.8505368,8.10757683 28.3185,7.637 C28.091,7.3815 27.8495,7.133 27.6185,6.895 C22.6575424,2.06060806 14.9809371,1.38153938 9.24836149,5.26998668 C3.51578583,9.15843397 1.30815729,16.5420495 3.9655,22.939 C4.25318294,23.6493595 3.91622376,24.4589976 3.2095,24.7555 C3.04107951,24.8208002 2.86161346,24.8528901 2.681,24.8501792 Z" id="Path" fill="#3ec82c" fill-rule="nonzero"></path>
                <path d="M17.5525,35.0000415 C13.0351388,35.0098939 8.69337507,33.2510775 5.4565,30.1 C5.030649,29.7709664 4.83109449,29.2269591 4.94316835,28.7006021 C5.05524221,28.1742451 5.45910401,27.7587194 5.98205764,27.6317088 C6.50501127,27.5046981 7.05447827,27.6886872 7.3955,28.105 C12.3595496,32.9207551 20.0229207,33.5889345 25.745511,29.7049614 C31.4681013,25.8209884 33.6769003,18.4524792 31.0345,12.061 C30.850455,11.3791066 31.2031574,10.6669099 31.857078,10.4000035 C32.5109985,10.1330971 33.2613245,10.3950783 33.607,11.011 C35.8149699,16.3687718 35.2057628,22.4747557 31.9827426,27.2906659 C28.7597224,32.1065761 23.3473983,34.9981017 17.5525,35.0000415 Z" id="Path" fill="#3ec82c" fill-rule="nonzero"></path>
                <rect id="Rectangle" x="0" y="0" width="35" height="35"></rect>
            </g>
        </g>
    </g>
</svg>