<?xml version="1.0" encoding="UTF-8"?>
<svg width="14px" height="23px" viewBox="0 0 14 23" version="1.1" xmlns="http://www.w3.org/2000/svg" xmlns:xlink="http://www.w3.org/1999/xlink">
    <!-- Generator: Sketch 63.1 (92452) - https://sketch.com -->
    <title>noun_mic_2027315</title>
    <desc>Created with Sketch.</desc>
    <g id="Video-Assessment-UX" stroke="none" stroke-width="1" fill="none" fill-rule="evenodd">
        <g id="CS_VideoProfile_2a" transform="translate(-593.000000, -561.000000)" fill="#747588" fill-rule="nonzero">
            <g id="noun_mic_2027315" transform="translate(593.000000, 561.000000)">
                <path d="M6.95586623,16.2671327 C9.5703125,16.2671327 11.7050439,14.1371985 11.7050439,11.5227522 L11.7050439,4.76836623 C11.7050439,2.15391996 9.5703125,0.0239857456 6.95586623,0.0239857456 C4.34141996,0.0239857456 2.2066886,2.15391996 2.2066886,4.76836623 L2.2066886,11.5227522 C2.2066886,14.1419956 4.34141996,16.2671327 6.95586623,16.2671327 Z M3.35800439,4.76836623 C3.35800439,2.78714364 4.97464364,1.17530154 6.95586623,1.17530154 C8.93708882,1.17530154 10.5537281,2.78714364 10.5537281,4.76836623 L10.5537281,11.5227522 C10.5537281,13.5039748 8.93708882,15.1158169 6.95586623,15.1158169 C4.97464364,15.1158169 3.35800439,13.5039748 3.35800439,11.5227522 L3.35800439,4.76836623 Z" id="Shape"></path>
                <path d="M13.8877467,13.0050713 C13.8877467,12.6884594 13.6287007,12.4294134 13.3120888,12.4294134 C12.995477,12.4294134 12.7364309,12.6884594 12.7364309,13.0050713 C12.7364309,15.7346491 10.1459704,17.9557292 6.95586623,17.9557292 C3.76576206,17.9557292 1.17530154,15.7346491 1.17530154,13.0050713 C1.17530154,12.6884594 0.916255482,12.4294134 0.59964364,12.4294134 C0.283031798,12.4294134 0.0239857456,12.6884594 0.0239857456,13.0050713 C0.0239857456,16.1999726 2.82552083,18.8288103 6.38020833,19.0878564 L6.38020833,21.3473136 L4.78275768,21.3473136 C4.46614583,21.3473136 4.20709978,21.6063596 4.20709978,21.9229715 C4.20709978,22.2395833 4.46614583,22.4986294 4.78275768,22.4986294 L9.12897478,22.4986294 C9.44558662,22.4986294 9.70463268,22.2395833 9.70463268,21.9229715 C9.70463268,21.6063596 9.44558662,21.3473136 9.12897478,21.3473136 L7.53152412,21.3473136 L7.53152412,19.0830592 C11.0862116,18.8240132 13.8877467,16.1999726 13.8877467,13.0050713 Z" id="Path"></path>
            </g>
        </g>
    </g>
</svg>