<?xml version="1.0" encoding="UTF-8"?>
<svg width="17px" height="17px" viewBox="0 0 17 17" version="1.1" xmlns="http://www.w3.org/2000/svg" xmlns:xlink="http://www.w3.org/1999/xlink">
    <!-- Generator: Sketch 63.1 (92452) - https://sketch.com -->
    <title>Path</title>
    <desc>Created with Sketch.</desc>
    <g id="Talent-Mob-2020" stroke="none" stroke-width="1" fill="none" fill-rule="evenodd">
        <g id="Tal_Web_MyRedep" transform="translate(-742.000000, -162.000000)" fill="#FFFFFF" fill-rule="nonzero" stroke="#747588">
            <g id="Group-10" transform="translate(742.000000, 144.000000)">
                <path d="M1.88888889,18.5 C1.50442469,18.5 1.15789905,18.6553843 0.907190516,18.9060928 C0.655270499,19.1580128 0.5,19.5060003 0.5,19.8888889 L0.5,33.1111111 C0.5,33.4939997 0.655270499,33.8419872 0.907190516,34.0939072 C1.15789905,34.3446157 1.50442469,34.5 1.88888889,34.5 L15.1111111,34.5 C15.4955753,34.5 15.842101,34.3446157 16.0928095,34.0939072 C16.3447295,33.8419872 16.5,33.4939997 16.5,33.1111111 L16.1375317,19.4336425 C15.7248823,19.2361348 15.0341652,19.0707008 13.8942934,18.9282168 C11.748242,18.6599603 8.09510665,18.5 1.88888889,18.5 Z" id="Path"></path>
            </g>
        </g>
    </g>
</svg>