<?xml version="1.0" encoding="UTF-8"?>
<svg width="29px" height="20px" viewBox="0 0 29 20" version="1.1" xmlns="http://www.w3.org/2000/svg" xmlns:xlink="http://www.w3.org/1999/xlink">
    <!-- Generator: Sketch 63.1 (92452) - https://sketch.com -->
    <title>noun_video recording_3321500</title>
    <desc>Created with Sketch.</desc>
    <g id="Video-Assessment-UX" stroke="none" stroke-width="1" fill="none" fill-rule="evenodd">
        <g id="CS_VideoProfile_2a" transform="translate(-624.000000, -562.000000)" fill="#747588" fill-rule="nonzero" stroke="#FFFFFF" stroke-width="0.2">
            <g id="noun_video-recording_3321500" transform="translate(625.000000, 563.000000)">
                <path d="M26.67,1.6275 C26.4642413,1.48860376 26.2030839,1.46052232 25.9725,1.5525 L19.5,4.14 L19.5,0.75 C19.5,0.335786438 19.1642136,0 18.75,0 L0.75,0 C0.335786438,0 0,0.335786438 0,0.75 L0,17.25 C0,17.6642136 0.335786438,18 0.75,18 L18.75,18 C19.1642136,18 19.5,17.6642136 19.5,17.25 L19.5,13.86 L25.9725,16.4475 C26.060512,16.4835382 26.1549057,16.5013965 26.25,16.5 C26.399582,16.500334 26.545847,16.4559321 26.67,16.3725 C26.8766841,16.2327972 27.0003759,15.9994696 27,15.75 L27,2.25 C27.0003759,2.00053044 26.8766841,1.76720283 26.67,1.6275 Z M18,16.5 L1.5,16.5 L1.5,1.5 L18,1.5 L18,16.5 Z M25.5,14.64 L19.5,12.24 L19.5,5.76 L25.5,3.36 L25.5,14.64 Z" id="Shape"></path>
            </g>
        </g>
    </g>
</svg>