<?xml version="1.0" encoding="UTF-8"?>
<svg width="34px" height="40px" viewBox="0 0 34 40" version="1.1" xmlns="http://www.w3.org/2000/svg" xmlns:xlink="http://www.w3.org/1999/xlink">
    <!-- Generator: Sketch 63.1 (92452) - https://sketch.com -->
    <title>noun_timer_2009660</title>
    <desc>Created with Sketch.</desc>
    <g id="Video-Assessment-UX" stroke="none" stroke-width="1" fill="none" fill-rule="evenodd">
        <g id="CS_VideoProfile_1_new" transform="translate(-578.000000, -180.000000)" fill="#3ec82c" fill-rule="nonzero">
            <g id="noun_timer_2009660" transform="translate(578.000000, 180.000000)">
                <path d="M21.3624339,2.22222222 C22.037037,2.22222222 22.4867725,2.66666667 22.4867725,3.33333333 C22.4867725,4 22.037037,4.44444444 21.3624339,4.44444444 L12.3677249,4.44444444 C11.6931217,4.44444444 11.2433862,4 11.2433862,3.33333333 C11.2433862,2.66666667 11.6931217,2.22222222 12.3677249,2.22222222 L21.3624339,2.22222222 M21.3624339,0 L12.3677249,0 C10.5687831,0 8.99470899,1.55555556 8.99470899,3.33333333 C8.99470899,5.11111111 10.5687831,6.66666667 12.3677249,6.66666667 L21.3624339,6.66666667 C23.1613757,6.66666667 24.7354497,5.11111111 24.7354497,3.33333333 C24.7354497,1.55555556 23.1613757,0 21.3624339,0 Z" id="Shape"></path>
                <path d="M16.8650794,8.88888889 C24.9603175,8.88888889 31.4814815,15.3333333 31.4814815,23.3333333 C31.4814815,31.3333333 24.9603175,37.7777778 16.8650794,37.7777778 C8.76984127,37.7777778 2.24867725,31.3333333 2.24867725,23.3333333 C2.24867725,15.3333333 8.76984127,8.88888889 16.8650794,8.88888889 M16.8650794,6.66666667 C7.64550265,6.66666667 0,14.2222222 0,23.3333333 C0,32.4444444 7.64550265,40 16.8650794,40 C26.0846561,40 33.7301587,32.4444444 33.7301587,23.3333333 C33.7301587,14.2222222 26.0846561,6.66666667 16.8650794,6.66666667 Z" id="Shape"></path>
                <path d="M20.0132275,24.4444444 L28.1084656,24.4444444 C28.7830688,24.4444444 29.2328042,24 29.2328042,23.3333333 C29.2328042,22.6666667 28.7830688,22.2222222 28.1084656,22.2222222 L20.0132275,22.2222222 C19.3386243,20.4444444 17.5396825,19.5555556 15.7407407,20.2222222 C13.9417989,20.8888889 13.042328,22.6666667 13.7169312,24.4444444 C14.3915344,26.2222222 16.1904762,27.1111111 17.989418,26.4444444 C18.8888889,26.2222222 19.7883598,25.3333333 20.0132275,24.4444444 Z M15.7407407,23.3333333 C15.7407407,22.6666667 16.1904762,22.2222222 16.8650794,22.2222222 C17.5396825,22.2222222 17.989418,22.6666667 17.989418,23.3333333 C17.989418,24 17.5396825,24.4444444 16.8650794,24.4444444 C16.1904762,24.4444444 15.7407407,24 15.7407407,23.3333333 Z" id="Shape"></path>
                <path d="M28.7830688,21.1111111 C28.3333333,21.1111111 27.8835979,20.6666667 27.6587302,20.2222222 C26.3095238,15.5555556 21.8121693,12.2222222 16.8650794,12.2222222 C16.1904762,12.2222222 15.7407407,11.7777778 15.7407407,11.1111111 C15.7407407,10.4444444 16.1904762,10 16.8650794,10 C22.9365079,10 28.1084656,14 29.9074074,19.7777778 C30.1322751,20.4444444 29.6825397,20.8888889 29.2328042,21.1111111 L28.7830688,21.1111111 Z" id="Path"></path>
            </g>
        </g>
    </g>
</svg>