<?xml version="1.0" encoding="UTF-8"?>
<svg width="21px" height="10px" viewBox="0 0 21 10" version="1.1" xmlns="http://www.w3.org/2000/svg" xmlns:xlink="http://www.w3.org/1999/xlink">
    <!-- Generator: Sketch 63.1 (92452) - https://sketch.com -->
    <title>noun_infinite_1840428</title>
    <desc>Created with Sketch.</desc>
    <g id="Video-Assessment-UX" stroke="none" stroke-width="1" fill="none" fill-rule="evenodd">
        <g id="CS_VideoProfile_1_new" transform="translate(-733.000000, -244.000000)" fill="#232333" fill-rule="nonzero">
            <g id="noun_infinite_1840428" transform="translate(733.000000, 244.000000)">
                <path d="M10.5,6.12972973 C8.88243243,7.7472973 7.20810811,9.50675676 4.65405405,9.50675676 C1.98648649,9.50675676 0.113513514,7.54864865 0.113513514,4.82432432 C0.113513514,2.32702703 2.12837838,0.141891892 4.90945946,0.141891892 C7.23648649,0.141891892 8.99594595,2.01486486 10.5,3.51891892 C12.1175676,1.90135135 13.7918919,0.141891892 16.3459459,0.141891892 C19.0418919,0.141891892 20.8864865,2.1 20.8864865,4.82432432 C20.8864865,7.32162162 18.8716216,9.50675676 16.0905405,9.50675676 C13.7635135,9.50675676 12.0040541,7.63378378 10.5,6.12972973 Z M9.22297297,4.82432432 C8.0027027,3.68918919 6.6972973,2.04324324 4.8527027,2.04324324 C3.26351351,2.04324324 2.07162162,3.34864865 2.07162162,4.82432432 C2.07162162,6.44189189 3.20675676,7.60540541 4.76756757,7.60540541 C6.58378378,7.60540541 8.03108108,6.04459459 9.22297297,4.82432432 Z M18.9,4.82432432 C18.9,3.20675676 17.7648649,2.04324324 16.2040541,2.04324324 C14.4162162,2.04324324 12.9405405,3.60405405 11.7486486,4.82432432 C12.9689189,5.95945946 14.2743243,7.60540541 16.1189189,7.60540541 C17.7081081,7.60540541 18.9,6.3 18.9,4.82432432 Z" id="Shape"></path>
            </g>
        </g>
    </g>
</svg>