<?xml version="1.0" encoding="UTF-8"?>
<svg width="30px" height="27px" viewBox="0 0 30 27" version="1.1" xmlns="http://www.w3.org/2000/svg" xmlns:xlink="http://www.w3.org/1999/xlink">
    <!-- Generator: Sketch 63.1 (92452) - https://sketch.com -->
    <title>noun_bulb_1407043</title>
    <desc>Created with Sketch.</desc>
    <g id="Video-Assessment-UX" stroke="none" stroke-width="1" fill="none" fill-rule="evenodd" opacity="0.474795387">
        <g id="CS_VideoProfile_1_new" transform="translate(-351.000000, -341.000000)" fill="#000000" fill-rule="nonzero">
            <g id="noun_bulb_1407043" transform="translate(351.000000, 341.000000)">
                <path d="M19.62,9.75 C18.1424419,8.42159703 16.1621178,7.79795903 14.19,8.04 C10.9772017,8.42509809 8.45358232,10.9735808 8.1,14.19 C7.84347873,16.4872362 8.76976208,18.7577601 10.56,20.22 C11.0291512,20.6029062 11.3039349,21.1744563 11.31,21.78 L11.31,24.54 C11.31,25.8654834 12.3845166,26.94 13.71,26.94 L16.29,26.94 C17.6154834,26.94 18.69,25.8654834 18.69,24.54 L18.69,21.87 C18.6936494,21.2854509 18.9442841,20.7296956 19.38,20.34 C20.9605844,19.0531175 21.8976444,17.1380743 21.9438244,15.1003841 C21.9900043,13.0626939 21.1406627,11.1071658 19.62,9.75 L19.62,9.75 Z M16.29,25.17 L13.71,25.17 C13.3786292,25.17 13.11,24.9013708 13.11,24.57 L13.11,22.83 L16.89,22.83 L16.89,24.57 C16.89,24.7291299 16.8267859,24.8817422 16.7142641,24.9942641 C16.6017422,25.1067859 16.4491299,25.17 16.29,25.17 Z M18.24,18.96 C17.6203155,19.5016521 17.1894535,20.2267614 17.01,21.03 L13.02,21.03 C12.834278,20.1741179 12.3700663,19.4039485 11.7,18.84 C10.366291,17.7623311 9.68529509,16.0711913 9.9,14.37 C10.0574012,11.5367792 12.4817792,9.36759885 15.315,9.525 C18.1482208,9.68240115 20.3174012,12.1067792 20.16,14.94 C20.1495829,16.5055223 19.433045,17.9826927 18.21,18.96 L18.24,18.96 Z" id="Shape"></path>
                <path d="M15,6.48 C15.4970563,6.48 15.9,6.07705627 15.9,5.58 L15.9,0.93 C15.9,0.432943725 15.4970563,0.03 15,0.03 C14.5029437,0.03 14.1,0.432943725 14.1,0.93 L14.1,5.58 C14.1,6.07705627 14.5029437,6.48 15,6.48 L15,6.48 Z" id="Path"></path>
                <path d="M5.61,15.87 C6.10705627,15.87 6.51,15.4670563 6.51,14.97 C6.51,14.4729437 6.10705627,14.07 5.61,14.07 L0.96,14.07 C0.462943725,14.07 0.06,14.4729437 0.06,14.97 C0.06,15.4670563 0.462943725,15.87 0.96,15.87 L5.61,15.87 Z" id="Path"></path>
                <path d="M29.01,14.07 L24.39,14.07 C23.8929437,14.07 23.49,14.4729437 23.49,14.97 C23.49,15.4670563 23.8929437,15.87 24.39,15.87 L29.01,15.87 C29.5070563,15.87 29.91,15.4670563 29.91,14.97 C29.91,14.4729437 29.5070563,14.07 29.01,14.07 L29.01,14.07 Z" id="Path"></path>
                <path d="M4.44,25.53 C4.78995916,25.8730286 5.35004084,25.8730286 5.7,25.53 L9,22.23 C9.2687312,21.8716917 9.23309886,21.3703067 8.9163961,21.0536039 C8.59969334,20.7369011 8.09830827,20.7012688 7.74,20.97 L4.44,24.27 C4.09697141,24.6199592 4.09697141,25.1800408 4.44,25.53 Z" id="Path"></path>
                <path d="M25.56,4.41 C25.2100408,4.06697141 24.6499592,4.06697141 24.3,4.41 L21,7.71 C20.7182754,7.92129343 20.5856658,8.27748803 20.6606254,8.62157335 C20.735585,8.96565866 21.0043413,9.23441497 21.3484267,9.30937458 C21.692512,9.38433419 22.0487066,9.25172457 22.26,8.97 L25.56,5.67 C25.9030286,5.32004084 25.9030286,4.75995916 25.56,4.41 L25.56,4.41 Z" id="Path"></path>
                <path d="M7.74,8.97 C8.09830827,9.2387312 8.59969334,9.20309886 8.9163961,8.8863961 C9.23309886,8.56969334 9.2687312,8.06830827 9,7.71 L5.7,4.41 C5.46956369,4.18492268 5.13655445,4.09987896 4.82641361,4.186904 C4.51627278,4.27392903 4.27611814,4.51980164 4.19641361,4.831904 C4.11670909,5.14400635 4.20956369,5.47492268 4.44,5.7 L7.74,8.97 Z" id="Path"></path>
                <path d="M25.56,24.24 L22.26,20.94 C21.9037763,20.5920606 21.3329394,20.5987764 20.985,20.955 C20.6370606,21.3112237 20.6437764,21.8820606 21,22.23 L24.3,25.53 C24.6583083,25.7987312 25.1596933,25.7630989 25.4763961,25.4463961 C25.7930989,25.1296933 25.8287312,24.6283083 25.56,24.27 L25.56,24.24 Z" id="Path"></path>
            </g>
        </g>
    </g>
</svg>