<?xml version="1.0" encoding="UTF-8"?>
<svg width="32px" height="32px" viewBox="0 0 32 32" version="1.1" xmlns="http://www.w3.org/2000/svg" xmlns:xlink="http://www.w3.org/1999/xlink">
    <!-- Generator: Sketch 63.1 (92452) - https://sketch.com -->
    <title>noun_video gallery_200984</title>
    <desc>Created with Sketch.</desc>
    <g id="Video-Assessment-UX" stroke="none" stroke-width="1" fill="none" fill-rule="evenodd">
        <g id="CS_VideoProfile_1_new" transform="translate(-385.000000, -184.000000)" fill="#3ec82c" fill-rule="nonzero">
            <g id="noun_video-gallery_200984" transform="translate(385.000000, 184.000000)">
                <path d="M12.4688797,17.8653061 C12.6142879,17.9489796 12.7760226,17.9908163 12.9377573,17.9908163 C13.1000022,17.9908163 13.2617369,17.9489796 13.407145,17.8653061 L22.2632675,12.752551 C22.5530634,12.5846939 22.7326552,12.275 22.7326552,11.9397959 C22.7326552,11.6045918 22.5530634,11.294898 22.2632675,11.1270408 L13.407145,6.01377551 C13.1168389,5.84591837 12.7591858,5.84591837 12.4688797,6.01377551 C12.1785736,6.18112245 12.0000011,6.49081633 12.0000011,6.82602041 L12.0000011,17.052551 C11.999492,17.3877551 12.1785736,17.6979592 12.4688797,17.8653061 Z M13.8760226,8.45102041 L19.9183695,11.9392857 L13.8760226,15.427551 L13.8760226,8.45102041 Z" id="Shape"></path>
                <path d="M31.2770408,3.62857143 L31.2770408,1.13571429 C31.2770408,0.617857143 30.8571429,0.197959184 30.3382653,0.197959184 L1.66122449,0.197959184 C1.14285714,0.197959184 0.722959184,0.617857143 0.722959184,1.13571429 L0.722959184,3.62857143 L0.722959184,28.0030612 L0.722959184,30.4964286 C0.722959184,31.0147959 1.14285714,31.4341837 1.66122449,31.4341837 L30.3387755,31.4341837 C30.8576531,31.4341837 31.277551,31.0147959 31.277551,30.4964286 L31.277551,28.0030612 L31.2770408,3.62857143 Z M29.4010204,2.07397959 L29.4010204,21.7382653 L2.5994898,21.7382653 L2.5994898,2.07397959 L29.4010204,2.07397959 Z M2.5994898,29.5581633 L2.5994898,23.6147959 L29.4010204,23.6147959 L29.4010204,29.5576531 L2.5994898,29.5576531 L2.5994898,29.5581633 Z" id="Shape"></path>
            </g>
        </g>
    </g>
</svg>