<?xml version="1.0" encoding="UTF-8"?>
<svg width="16px" height="22px" viewBox="0 0 16 22" version="1.1" xmlns="http://www.w3.org/2000/svg" xmlns:xlink="http://www.w3.org/1999/xlink">
    <!-- Generator: Sketch 63.1 (92452) - https://sketch.com -->
    <title>Fill 1</title>
    <desc>Created with Sketch.</desc>
    <g id="Video-Profile" stroke="none" stroke-width="1" fill="none" fill-rule="evenodd">
        <g id="CS_VideoProfile_1_new" transform="translate(-826.000000, -579.000000)" fill="#000000">
            <g id="Group-6" transform="translate(551.000000, 572.000000)">
                <path d="M275.242424,7 C275.089016,7 275.001893,7.12878788 275,7.24242424 L275,28.0909091 C275,28.2178036 275.11553,28.3333333 275.242424,28.3333333 L287.363636,28.3333333 C287.428977,28.3333333 287.493372,28.3049236 287.537879,28.2575758 L290.931818,24.8636364 C290.974432,24.8191297 290.999052,24.7585236 291,24.6969697 L291,7.24242424 C291,7.1155297 290.88447,7 290.757576,7 L275.242424,7 Z M275.484848,7.48484848 L290.515152,7.48484848 L290.515152,24.4545455 L287.363636,24.4545455 C287.208335,24.4573867 287.123105,24.5804921 287.121212,24.6969697 L287.121212,27.8484848 L275.484848,27.8484848 L275.484848,7.48484848 Z M278.393939,10.6363636 C277.992436,10.6363636 277.666667,10.9621333 277.666667,11.3636364 C277.666667,11.7651394 277.992436,12.0909091 278.393939,12.0909091 C278.795442,12.0909091 279.121212,11.7651394 279.121212,11.3636364 C279.121212,10.9621333 278.795442,10.6363636 278.393939,10.6363636 Z M281.545455,11.1212121 C281.411932,11.1212121 281.30303,11.2301139 281.30303,11.3636364 C281.30303,11.4971588 281.411932,11.6060606 281.545455,11.6060606 L288.090909,11.6060606 C288.224432,11.6060606 288.333333,11.4971588 288.333333,11.3636364 C288.333333,11.2301139 288.224432,11.1212121 288.090909,11.1212121 L281.545455,11.1212121 Z M278.393939,14.5151515 C277.992436,14.5151515 277.666667,14.8409212 277.666667,15.2424242 C277.666667,15.6439273 277.992436,15.969697 278.393939,15.969697 C278.795442,15.969697 279.121212,15.6439273 279.121212,15.2424242 C279.121212,14.8409212 278.795442,14.5151515 278.393939,14.5151515 Z M281.545455,15 C281.411932,15 281.30303,15.1089018 281.30303,15.2424242 C281.30303,15.3759467 281.411932,15.4848485 281.545455,15.4848485 L288.090909,15.4848485 C288.224432,15.4848485 288.333333,15.3759467 288.333333,15.2424242 C288.333333,15.1089018 288.224432,15 288.090909,15 L281.545455,15 Z M278.393939,18.3939394 C277.992436,18.3939394 277.666667,18.7197091 277.666667,19.1212121 C277.666667,19.5227152 277.992436,19.8484848 278.393939,19.8484848 C278.795442,19.8484848 279.121212,19.5227152 279.121212,19.1212121 C279.121212,18.7197091 278.795442,18.3939394 278.393939,18.3939394 Z M281.545455,18.8787879 C281.411932,18.8787879 281.30303,18.9876897 281.30303,19.1212121 C281.30303,19.2547345 281.411932,19.3636364 281.545455,19.3636364 L288.090909,19.3636364 C288.224432,19.3636364 288.333333,19.2547345 288.333333,19.1212121 C288.333333,18.9876897 288.224432,18.8787879 288.090909,18.8787879 L281.545455,18.8787879 Z M278.393939,22.2727273 C277.992436,22.2727273 277.666667,22.598497 277.666667,23 C277.666667,23.401503 277.992436,23.7272727 278.393939,23.7272727 C278.795442,23.7272727 279.121212,23.401503 279.121212,23 C279.121212,22.598497 278.795442,22.2727273 278.393939,22.2727273 Z M281.545455,22.7575758 C281.411932,22.7575758 281.30303,22.8664776 281.30303,23 C281.30303,23.1335224 281.411932,23.2424242 281.545455,23.2424242 L288.090909,23.2424242 C288.224432,23.2424242 288.333333,23.1335224 288.333333,23 C288.333333,22.8664776 288.224432,22.7575758 288.090909,22.7575758 L281.545455,22.7575758 Z M287.606061,24.9393939 L290.166545,24.9393939 L287.606061,27.4998788 L287.606061,24.9393939 Z" id="Fill-1"></path>
            </g>
        </g>
    </g>
</svg>