<?xml version="1.0" encoding="UTF-8"?>
<svg width="27px" height="28px" viewBox="0 0 27 28" version="1.1" xmlns="http://www.w3.org/2000/svg" xmlns:xlink="http://www.w3.org/1999/xlink">
    <!-- Generator: Sketch 63.1 (92452) - https://sketch.com -->
    <title>Group</title>
    <desc>Created with Sketch.</desc>
    <g id="Video-Assessment-UX" stroke="none" stroke-width="1" fill="none" fill-rule="evenodd">
        <g id="CS_VideoProfile_2a" transform="translate(-60.000000, -124.000000)" fill="#3EC82C" fill-rule="nonzero" stroke="#FFFFFF" stroke-width="0.5">
            <g id="Group" transform="translate(61.000000, 125.000000)">
                <path d="M4.75543478,14.1847826 C4.64673913,14.1847826 4.56521739,14.2663043 4.56521739,14.375 L4.56521739,16.1413043 C4.56521739,16.25 4.64673913,16.3315217 4.75543478,16.3315217 L11.3043478,16.3315217 C11.6576087,15.5434783 12.173913,14.8097826 12.7717391,14.1847826 L4.75543478,14.1847826 L4.75543478,14.1847826 Z" id="Path"></path>
                <path d="M5.48913043,18.9402174 C5.13586957,18.9402174 4.7826087,19.076087 4.53804348,19.3206522 L2.01086957,21.6032609 L2.01086957,1.92934783 L17.7717391,1.92934783 L17.7717391,11.7391304 C18.0434783,11.6847826 18.3695652,11.6847826 18.6684783,11.6847826 C18.9673913,11.6847826 19.2663043,11.7119565 19.5652174,11.7391304 L19.5652174,1.54891304 C19.5652174,0.760869565 18.9402174,0.135869565 18.1521739,0.135869565 L1.63043478,0.135869565 C0.842391304,0.135869565 0.217391304,0.760869565 0.217391304,1.54891304 L0.217391304,22.3913043 C0.217391304,22.9619565 0.570652174,23.4782609 1.05978261,23.6956522 C1.25,23.7771739 1.44021739,23.8043478 1.63043478,23.8043478 C1.98369565,23.8043478 2.33695652,23.6956522 2.58152174,23.451087 L5.59782609,20.7065217 L10.5434783,20.7065217 C10.4891304,20.4347826 10.4891304,20.1086957 10.4891304,19.8097826 C10.4891304,19.5108696 10.5163043,19.2119565 10.5434783,18.9130435 L5.48913043,18.9130435 L5.48913043,18.9402174 Z" id="Path"></path>
                <path d="M15.1086957,4.75543478 C15.1086957,4.64673913 15.0271739,4.56521739 14.9184783,4.56521739 L4.75543478,4.56521739 C4.64673913,4.56521739 4.56521739,4.64673913 4.56521739,4.75543478 L4.56521739,6.52173913 C4.56521739,6.63043478 4.64673913,6.71195652 4.75543478,6.71195652 L14.9184783,6.71195652 C15.0271739,6.71195652 15.1086957,6.63043478 15.1086957,6.52173913 L15.1086957,4.75543478 Z" id="Path"></path>
                <path d="M14.9184783,9.375 L4.75543478,9.375 C4.64673913,9.375 4.56521739,9.45652174 4.56521739,9.56521739 L4.56521739,11.3315217 C4.56521739,11.4402174 4.64673913,11.5217391 4.75543478,11.5217391 L14.9184783,11.5217391 C15.0271739,11.5217391 15.1086957,11.4402174 15.1086957,11.3315217 L15.1086957,9.56521739 C15.1086957,9.45652174 15.0271739,9.375 14.9184783,9.375 Z" id="Path"></path>
                <path d="M18.6413043,13.6956522 C15.2717391,13.6956522 12.5,16.4402174 12.5,19.8369565 C12.5,23.2336957 15.2445652,25.9782609 18.6413043,25.9782609 C22.0380435,25.9782609 24.7826087,23.2336957 24.7826087,19.8369565 C24.7826087,16.4402174 22.0380435,13.6956522 18.6413043,13.6956522 Z M18.6413043,24.1576087 C16.25,24.1576087 14.2934783,22.201087 14.2934783,19.8097826 C14.2934783,17.4184783 16.25,15.4619565 18.6413043,15.4619565 C21.0326087,15.4619565 22.9891304,17.4184783 22.9891304,19.8097826 C22.9891304,22.201087 21.0597826,24.1576087 18.6413043,24.1576087 Z" id="Shape"></path>
                <path d="M19.7826087,17.9891304 L18.0706522,19.9184783 L17.3097826,19.1576087 C16.9565217,18.8043478 16.3858696,18.8043478 16.0597826,19.1576087 C15.7065217,19.5108696 15.7065217,20.0815217 16.0597826,20.4076087 L17.5,21.8478261 C17.6630435,22.0108696 17.8804348,22.1195652 18.125,22.1195652 C18.125,22.1195652 18.1521739,22.1195652 18.1521739,22.1195652 C18.3967391,22.1195652 18.6413043,22.0108696 18.8043478,21.8206522 L21.1413043,19.1847826 C21.4673913,18.8043478 21.4402174,18.2608696 21.0597826,17.9347826 C20.6793478,17.5815217 20.1086957,17.6358696 19.7826087,17.9891304 Z" id="Path"></path>
            </g>
        </g>
    </g>
</svg>