<?xml version="1.0" encoding="UTF-8"?>
<svg width="20px" height="25px" viewBox="0 0 20 25" version="1.1" xmlns="http://www.w3.org/2000/svg" xmlns:xlink="http://www.w3.org/1999/xlink">
    <!-- Generator: Sketch 63.1 (92452) - https://sketch.com -->
    <title>noun_thumbs up_1351290 (3)</title>
    <desc>Created with Sketch.</desc>
    <g id="Video-Assessment-UX" stroke="none" stroke-width="1" fill="none" fill-rule="evenodd">
        <g id="CS_VideoProfile_3" transform="translate(-60.000000, -300.000000)" fill="#3EC82C" fill-rule="nonzero">
            <g id="noun_thumbs-up_1351290-(3)" transform="translate(60.000000, 300.000000)">
                <path d="M15.27,6.1275 C15.27,6.47267797 15.549822,6.7525 15.895,6.7525 L17.295,6.7525 C17.640178,6.7525 17.92,6.47267797 17.92,6.1275 C17.92,5.78232203 17.640178,5.5025 17.295,5.5025 L15.895,5.5025 C15.7292397,5.5025 15.5702685,5.56834803 15.4530583,5.68555826 C15.335848,5.8027685 15.27,5.96173969 15.27,6.1275 L15.27,6.1275 Z" id="Path"></path>
                <path d="M5.665,6.1275 C5.665,6.47267797 5.94482203,6.7525 6.29,6.7525 L7.69,6.7525 C8.03517797,6.7525 8.315,6.47267797 8.315,6.1275 C8.315,5.78232203 8.03517797,5.5025 7.69,5.5025 L6.29,5.5025 C5.94482203,5.5025 5.665,5.78232203 5.665,6.1275 Z" id="Path"></path>
                <path d="M12.4175,2.025 L12.4175,0.625 C12.4175,0.279822031 12.137678,0 11.7925,0 C11.447322,0 11.1675,0.279822031 11.1675,0.625 L11.1675,2.025 C11.1675,2.37017797 11.447322,2.65 11.7925,2.65 C12.137678,2.65 12.4175,2.37017797 12.4175,2.025 Z" id="Path"></path>
                <path d="M15.25,1.795 L14.25,2.795 C14.005614,3.039386 14.005614,3.43561399 14.25,3.67999999 C14.494386,3.92438598 14.890614,3.92438599 15.135,3.68 L16.135,2.68 C16.29309,2.52190998 16.3548312,2.29148875 16.2969662,2.07553376 C16.2391013,1.85957877 16.0704212,1.69089872 15.8544662,1.63303376 C15.6385113,1.57516879 15.40809,1.63690998 15.25,1.795 Z" id="Path"></path>
                <path d="M8.8925,3.85250371 C9.1456361,3.8529529 9.3740481,3.70067141 9.47098039,3.46682911 C9.56791268,3.23298681 9.51422105,2.96376774 9.335,2.785 L8.335,1.785 C8.090614,1.54061402 7.69438601,1.54061402 7.45000002,1.78500002 C7.20561402,2.02938601 7.20561402,2.425614 7.45,2.67 L8.45,3.67 C8.56728213,3.78737683 8.72657203,3.85307267 8.8925,3.85250371 L8.8925,3.85250371 Z" id="Path"></path>
                <path d="M1.38,11.06 C0.689644063,11.06 0.13,11.6196441 0.13,12.31 L0.13,23.25 C0.13,23.9403559 0.689644063,24.5000038 1.38,24.5000038 L5,24.5000038 C5.65758024,24.5016129 6.20397122,23.9934693 6.25,23.3375 L7.025,23.8025 C7.76276925,24.2454046 8.60699564,24.4795759 9.4675,24.48 L14.75,24.48 C15.3889354,24.4868314 16.0223209,24.3608353 16.61,24.11 C18.2975,23.36 18.5625,22.0425 18.4375,21.1675 C19.3250547,20.4221338 19.6500096,19.2003035 19.25,18.1125 C19.6683231,17.6063808 19.890215,16.9664444 19.875,16.31 C19.8476731,15.7957717 19.6694154,15.3009979 19.3625,14.8875 C19.7556743,13.981995 19.525032,12.926479 18.79,12.2675 C18.7383333,12.2191667 18.6841667,12.1733333 18.6275,12.13 C18.3431678,11.9185669 18.0151717,11.7733603 17.6675,11.705 L17.64,11.705 C15.9825,11.3525 14.8675,11.33 13.2275,11.33 C13.165,10.9525 13.1675,10.16 13.6625,8.6675 C14.12,7.285 14.08,6.1425 13.5425,5.27 C13.0937165,4.56379395 12.3547262,4.0931112 11.525,3.9847984 L11.4475,3.9847984 C10.85787,3.97475186 10.332702,4.35613603 10.16,4.92 C10.1511442,4.94947128 10.1444596,4.9795518 10.14,5.01 L9.9525,6.36 C9.89602194,6.76553187 9.77799709,7.16007211 9.6025,7.53 L7.78,11.3575 C7.50332325,11.9979581 6.9327682,12.4640978 6.25,12.6075 L6.25,12.31 C6.25,11.6196441 5.69035594,11.06 5,11.06 L1.38,11.06 Z M1.38,23.25 L1.38,12.31 L5,12.31 L5,23.25 L1.38,23.25 Z M6.38,13.865 C7.50544691,13.6676048 8.45516381,12.9153538 8.905,11.865 L10.7125,8.0475 C10.9423196,7.5621323 11.0966012,7.04448824 11.17,6.5125 L11.3625,5.25 C11.371497,5.24126036 11.3827511,5.23520042 11.395,5.2325 C11.8359091,5.30236402 12.2270271,5.55463965 12.4725,5.9275 C12.8025,6.4625 12.8025,7.275 12.4725,8.275 C11.9875,9.735 11.8375,10.8875 12.0225,11.7025 C12.1399129,12.2201167 12.601747,12.5862555 13.1325,12.5825 L13.1325,12.5825 C14.785,12.5825 15.805,12.5975 17.3825,12.93 L17.4075,12.93 C17.574144,12.960153 17.7320718,13.0267388 17.87,13.125 L17.95,13.1925 C18.59,13.77 18.185,14.51 18.1,14.6475 C17.9349103,14.9057803 17.9814995,15.2456697 18.21,15.45 C18.4533658,15.6963015 18.602842,16.0200192 18.6325,16.365 C18.6177503,16.8302948 18.4147531,17.2696709 18.07,17.5825 C17.8776755,17.7858288 17.8439717,18.0922274 17.9875,18.3325 C18.015,18.38 18.6575,19.4975 17.385,20.4325 C17.1663415,20.5970394 17.0776868,20.8831525 17.165,21.1425 C17.2325,21.3425 17.4975,22.3675 16.125,22.97 C15.689886,23.1518484 15.2214705,23.2404215 14.75,23.23 L9.4575,23.23 C8.82412952,23.2290441 8.20288888,23.0562372 7.66,22.73 L6.25,21.885 L6.25,13.885 L6.38,13.865 Z" id="Shape"></path>
                <circle id="Oval" cx="3.19" cy="21.305" r="1"></circle>
            </g>
        </g>
    </g>
</svg>