<?xml version="1.0" encoding="UTF-8"?>
<svg width="25px" height="14px" viewBox="0 0 25 14" version="1.1" xmlns="http://www.w3.org/2000/svg" xmlns:xlink="http://www.w3.org/1999/xlink">
    <!-- Generator: Sketch 63.1 (92452) - https://sketch.com -->
    <title>Group 3</title>
    <desc>Created with Sketch.</desc>
    <g id="Video-Profile" stroke="none" stroke-width="1" fill="none" fill-rule="evenodd">
        <g id="CS_VideoProfile_1_new" transform="translate(-564.000000, -584.000000)" fill="#000000">
            <g id="Group-6" transform="translate(551.000000, 572.000000)">
                <g id="Group-3" transform="translate(13.000000, 12.000000)">
                    <path d="M16.4239583,13.7222222 L2.94861111,13.7222222 C1.50003472,13.7222222 0.321388889,12.6832639 0.321388889,11.4055903 L0.321388889,2.48371528 C0.321388889,1.20604167 1.50003472,0.167083333 2.94861111,0.167083333 L16.4239583,0.167083333 C17.8725347,0.167083333 19.0511806,1.20604167 19.0511806,2.48371528 L19.0511806,11.4055903 C19.0511806,12.6832639 17.8725347,13.7222222 16.4239583,13.7222222 Z M2.94861111,1.01319444 C1.96663194,1.01319444 1.16774306,1.67236111 1.16774306,2.48347222 L1.16774306,11.4053437 C1.16774306,12.2164236 1.96663194,12.8756215 2.94861111,12.8756215 L16.4239583,12.8756215 C17.4059375,12.8756215 18.2048264,12.2164549 18.2048264,11.4053437 L18.2048264,2.48347222 C18.2048264,1.67239583 17.4059375,1.01319444 16.4239583,1.01319444 L2.94861111,1.01319444 Z" id="Fill-1"></path>
                    <path d="M24.5211806,11.6388924 C24.4275937,11.6388924 24.3380764,11.6076944 24.2634757,11.5520833 L18.6822257,7.28090278 C18.5777882,7.20087847 18.5167535,7.07609722 18.5167535,6.94453125 C18.5167535,6.81296528 18.5777882,6.68818403 18.6822257,6.60815972 L24.2634757,2.33697917 C24.3923264,2.23932292 24.5645833,2.22304861 24.7083368,2.29493403 C24.8521076,2.36546181 24.9443403,2.51194792 24.9443403,2.67333681 L24.9443403,11.2156979 C24.9443403,11.4489896 24.7544514,11.6388924 24.5211458,11.6388924 L24.5211806,11.6388924 Z M19.6357639,6.94444444 L24.0982639,10.3583333 L24.0982639,3.53055556 L19.6357639,6.94444444 Z" id="Fill-2"></path>
                </g>
            </g>
        </g>
    </g>
</svg>